<?xml version="1.0" encoding="UTF-8" standalone="no"?>
<!-- Created with Inkscape (http://www.inkscape.org/) -->

<svg
   width="210mm"
   height="297mm"
   viewBox="0 0 210 297"
   version="1.1"
   id="svg1"
   xml:space="preserve"
   xmlns="http://www.w3.org/2000/svg"
   xmlns:svg="http://www.w3.org/2000/svg"><defs
     id="defs1" /><g
     id="layer2"><path
       id="path4"
       style="fill:#000000;stroke-width:0.295356"
       d="M 175.54734,46.753227 26.614939,47.075001 64.132945,169.47937 101.13452,189.40985 137.13704,168.34714 Z M 35.066698,53.34093 c 38.976562,0.434042 93.534542,-0.0309 132.511112,0.403142 -8.38021,32.420871 -27.54778,78.626008 -35.92799,111.046868 -11.38607,5.01948 -19.50115,11.86526 -30.88721,16.88473 C 88.891518,175.58611 80.941064,170.3672 69.069971,164.27764 61.730778,132.49281 42.40589,85.125754 35.066698,53.34093 Z" /><path
       style="fill:#000000;stroke-width:0.264583"
       d="m 52.048283,41.265198 h 98.358857 l 4.08151,-10.962657 c -27.61982,5.514341 -36.71109,2.834069 -54.06036,-4.6938 -16.763081,8.550285 -25.274005,11.535467 -52.955895,5.094055 z"
       id="path5" /></g><g
     id="layer1"><path
       style="fill:#000000;stroke-width:0.264583"
       d="m 97.655704,82.265076 h -7.200528 l 0.11061,-14.564664 h -37.12202 l 28.04705,88.922578 9.368128,3.68775 -0.597136,-35.23217 H 76.989571 l -3.195549,-7.67948 23.847621,0.29965 0.09628,54.77975 -21.7306,-11.56845 L 43.77166,60.620227 96.943901,60.519622 Z"
       id="path2" /><path
       style="fill:#000000;stroke-width:0.264583"
       d="m 144.23456,82.070644 6.47872,0.299651 6.88113,-21.649464 -53.0673,0.299651 -0.80051,49.692188 31.12684,-0.1006 -14.27178,44.90643 -10.07452,5.78747 0.50085,-43.01009 -7.18079,-0.89895 -0.30181,56.28232 22.43699,-12.77353 17.96171,-57.47661 -33.31202,-0.0984 0.29748,-35.424721 37.6099,-0.400257 z"
       id="path3" /></g></svg>
